<svg width="49" height="49" viewBox="0 0 49 49" fill="none" xmlns="http://www.w3.org/2000/svg">
<path d="M24.7229 8.07568C20.4794 8.07568 16.4098 9.76139 13.4092 12.762C10.4086 15.7626 8.7229 19.8322 8.7229 24.0757C8.7229 28.3191 10.4086 32.3888 13.4092 35.3894C16.4098 38.39 20.4794 40.0757 24.7229 40.0757C28.9664 40.0757 33.036 38.39 36.0366 35.3894C39.0372 32.3888 40.7229 28.3191 40.7229 24.0757C40.7229 19.8322 39.0372 15.7626 36.0366 12.762C33.036 9.76139 28.9664 8.07568 24.7229 8.07568ZM4.7229 24.0757C4.7229 13.0297 13.6769 4.07568 24.7229 4.07568C35.7689 4.07568 44.7229 13.0297 44.7229 24.0757C44.7229 35.1217 35.7689 44.0757 24.7229 44.0757C13.6769 44.0757 4.7229 35.1217 4.7229 24.0757ZM25.3089 14.6617C25.684 14.2867 26.1926 14.0761 26.7229 14.0761C27.2532 14.0761 27.7618 14.2867 28.1369 14.6617L36.1369 22.6617C36.5118 23.0367 36.7225 23.5454 36.7225 24.0757C36.7225 24.606 36.5118 25.1146 36.1369 25.4897L28.1369 33.4897C27.7597 33.854 27.2545 34.0556 26.7301 34.051C26.2057 34.0465 25.7041 33.8361 25.3333 33.4653C24.9624 33.0945 24.7521 32.5929 24.7476 32.0685C24.743 31.5441 24.9446 31.0389 25.3089 30.6617L29.8949 26.0757H14.7229C14.1925 26.0757 13.6838 25.865 13.3087 25.4899C12.9336 25.1148 12.7229 24.6061 12.7229 24.0757C12.7229 23.5453 12.9336 23.0365 13.3087 22.6615C13.6838 22.2864 14.1925 22.0757 14.7229 22.0757H29.8949L25.3089 17.4897C24.934 17.1146 24.7233 16.606 24.7233 16.0757C24.7233 15.5454 24.934 15.0367 25.3089 14.6617Z" fill="white"/>
</svg>
